<svg viewBox="0 0 96 96" xmlns="http://www.w3.org/2000/svg" xmlns:xlink="http://www.w3.org/1999/xlink" id="Icons_Watch" overflow="hidden"><g><path d="M50 20C36.2 20 24.8 29.9 22.5 43L20 43C18.9 43 18 43.9 18 45L18 49C18 50.1 18.9 51 20 51L22.2 51C23.7 65.1 35.5 76 50 76 65.5 76 78 63.5 78 48 78 32.5 65.5 20 50 20ZM50 70C37.8 70 28 60.2 28 48 28 35.8 37.8 26 50 26 62.2 26 72 35.8 72 48 72 60.2 62.2 70 50 70Z" fill="#7030A0"/><path d="M69.4 22.5 66.6 7.3C66.3 5.4 64.6 4 62.7 4L37.3 4C35.4 4 33.7 5.4 33.4 7.3L30.6 22.6C42.1 13.8 57.9 13.8 69.4 22.5Z" fill="#7030A0"/><path d="M30.6 73.5 33.4 88.8C33.7 90.7 35.4 92.1 37.3 92.1L62.6 92.1C64.5 92.1 66.2 90.7 66.5 88.8L69.3 73.5C57.9 82.2 42.1 82.2 30.6 73.5Z" fill="#7030A0"/><path d="M52 32 48 32 48 48C48 48.5 48.2 49 48.6 49.4L59.6 60.4 62.4 57.6 52 47.2 52 32Z" fill="#7030A0"/></g></svg>