<svg viewBox="0 0 96 96" xmlns="http://www.w3.org/2000/svg" xmlns:xlink="http://www.w3.org/1999/xlink" id="Icons_BaseballHat" overflow="hidden"><path d="M89.83 56.61 71.39 53.15 71.39 53.25 70.06 54C63.6292 57.3462 56.9652 60.2237 50.12 62.61 49.12 62.93 47.9 63.3 46.5 63.7 49.75 64.87 69.21 71.7 78.14 69.7 84.14 68.36 88.76 63.03 91.14 59.78 91.7983 58.8931 91.613 57.6404 90.7261 56.982 90.4624 56.7864 90.1547 56.6586 89.83 56.61Z" stroke="#000000" fill="#FFFF00"/><path d="M23 67.5C32.38 65.29 43.83 62.5 49.18 60.76L49.18 60.76 49.98 60.5 51.11 60.11 51.11 60.11C52.31 59.68 53.51 59.23 54.69 58.77L55.46 58.46 56.25 58.14 56.52 58.03 56.52 58.03C63.4 55.2 69.1 52.19 69.1 52.19 65.28 35.07 50.6 24.61 32.1 27.74 31.542 25.9697 29.699 24.9429 27.9 25.4L26.2 25.84C24.3763 26.3212 23.2619 28.1609 23.68 30 8.93 35.75 3.71 48.3 7 63L8.31 68.85C8.54902 69.9259 9.61337 70.6056 10.69 70.37 12.86 69.88 16.69 69.01 21.11 67.97L21.11 67.97 23.11 67.51ZM31.35 28.12C36.9141 30.9921 41.5113 35.4362 44.57 40.9 47.2817 45.644 49.2353 50.7827 50.36 56.13L48.72 56.7 48.45 56.79C47.3813 51.5684 45.4912 46.5494 42.85 41.92 39.06 35.52 34.09 31.15 28.24 28.92ZM20.26 64C18.5 54.31 18.83 45.07 21.26 37.35 22.09 34.7411 23.2138 32.235 24.61 29.88L27.45 29.14C25.5956 31.8641 24.1597 34.8505 23.19 38 20.84 45.38 20.52 54.25 22.19 63.58Z" stroke="#000000" fill="#FFFF00"/></svg>